<?xml version="1.0" encoding="UTF-8"?>
<svg id="katman_2" data-name="katman 2" xmlns="http://www.w3.org/2000/svg" viewBox="0 0 185 32">
  <defs>
  </defs>
  <g id="katman_1" data-name="katman 1">
    <g>
      <rect class="cls-1" x="1.5" width="72.76" height="1.5"/>
      <path class="cls-1" d="m19.66,9.25h-9.75v4.74h8.4v3.78h-8.4v4.92h9.75v3.81H5.5V5.5h14.16v3.75Z"/>
      <path class="cls-1" d="m30.82,18.13l-7.32-12.63h5.1l4.56,8.4,4.59-8.4h4.77l-7.32,12.66v8.34h-4.38v-8.37Z"/>
      <path class="cls-1" d="m60.52,9.25h-9.75v4.74h8.4v3.78h-8.4v4.92h9.75v3.81h-14.16V5.5h14.16v3.75Z"/>
      <polyline class="cls-1" points="74.26 18.85 69.64 26.5 64.36 26.5 71.83 15.64 64.66 5.5 70.09 5.5 74.26 12.25"/>
      <g>
        <polygon class="cls-1" points="95.69 18.91 101.51 18.91 98.57 10.51 95.69 18.91"/>
        <path class="cls-1" d="m119.96,9.25h-2.79v6.48h2.82c1.12,0,1.98-.3,2.59-.9.61-.6.92-1.43.92-2.49s-.31-1.81-.92-2.33c-.61-.51-1.49-.76-2.62-.76Z"/>
        <path class="cls-1" d="m74.26,0v12.25l4.17-6.75h5.58l-7.38,10.14,8.04,10.86h-5.4l-5.01-7.65v13.15h77.24V0h-77.24Zm29.88,26.5l-1.44-4.08h-8.22l-1.38,4.08h-4.59l7.86-21h4.44l8.1,21h-4.77Zm23.13-10.67c-.62,1.11-1.54,2-2.76,2.66s-2.69.99-4.41.99h-2.94v7.02h-4.41V5.5h7.35c2.62,0,4.62.6,6.02,1.79,1.39,1.19,2.08,2.8,2.08,4.84,0,1.36-.31,2.59-.93,3.71Zm19.29,0c-.62,1.11-1.54,2-2.76,2.66s-2.69.99-4.41.99h-2.94v7.02h-4.41V5.5h7.35c2.62,0,4.62.6,6.02,1.79,1.39,1.19,2.08,2.8,2.08,4.84,0,1.36-.31,2.59-.93,3.71Z"/>
        <path class="cls-1" d="m139.25,9.25h-2.79v6.48h2.82c1.12,0,1.98-.3,2.59-.9.61-.6.92-1.43.92-2.49s-.31-1.81-.92-2.33c-.61-.51-1.49-.76-2.62-.76Z"/>
      </g>
      <rect class="cls-1" x="1.5" y="30.5" width="72.76" height="1.5"/>
      <rect class="cls-1" width="1.5" height="32"/>
      <path class="cls-1" d="m153,0v32h32V0h-32Zm6.62,12.88l9.38-9.38v6.25l-9.38,9.38v-6.25Zm4.69,4.69l9.38-9.38v6.25l-9.38,9.38v-6.25Zm14.06,1.56l-9.38,9.38v-6.25l9.38-9.38v6.25Z"/>
    </g>
  </g>
</svg>